<!-- <svg width="24" height="24" viewBox="0 0 24 24" fill="none" xmlns="http://www.w3.org/2000/svg">
<circle cx="6.5" cy="18.5" r="3.5" stroke="#141B34" stroke-width="1.5"/>
<circle cx="18" cy="16" r="3" stroke="#141B34" stroke-width="1.5"/>
<path d="M10 18.5L10 7C10 6.07655 10 5.61483 10.2635 5.32794C10.5269 5.04106 11.0175 4.9992 11.9986 4.91549C16.022 4.57222 18.909 3.26005 20.3553 2.40978C20.6508 2.236 20.7986 2.14912 20.8993 2.20672C21 2.26432 21 2.4315 21 2.76587V16" stroke="#141B34" stroke-width="1.5" stroke-linecap="round" stroke-linejoin="round"/>
<path d="M10 10C15.8667 10 19.7778 7.66667 21 7" stroke="#141B34" stroke-width="1.5" stroke-linecap="round" stroke-linejoin="round"/>
</svg> -->
<svg xmlns="http://www.w3.org/2000/svg" viewBox="0 0 24 24" width="24" height="24" color="#000000" fill="none">
    <path d="M2.5 12C2.5 7.52166 2.5 5.28249 3.89124 3.89124C5.28249 2.5 7.52166 2.5 12 2.5C16.4783 2.5 18.7175 2.5 20.1088 3.89124C21.5 5.28249 21.5 7.52166 21.5 12C21.5 16.4783 21.5 18.7175 20.1088 20.1088C18.7175 21.5 16.4783 21.5 12 21.5C7.52166 21.5 5.28249 21.5 3.89124 20.1088C2.5 18.7175 2.5 16.4783 2.5 12Z" stroke="currentColor" stroke-width="1.5" />
    <path d="M10 15.5C10 16.3284 9.32843 17 8.5 17C7.67157 17 7 16.3284 7 15.5C7 14.6716 7.67157 14 8.5 14C9.32843 14 10 14.6716 10 15.5ZM10 15.5V11C10 10.1062 10 9.65932 10.2262 9.38299C10.4524 9.10667 10.9638 9.00361 11.9865 8.7975C13.8531 8.42135 15.3586 7.59867 16 7V13.5M16 13.75C16 14.4404 15.4404 15 14.75 15C14.0596 15 13.5 14.4404 13.5 13.75C13.5 13.0596 14.0596 12.5 14.75 12.5C15.4404 12.5 16 13.0596 16 13.75Z" stroke="currentColor" stroke-width="1.5" stroke-linecap="round" stroke-linejoin="round" />
</svg>